<svg xmlns="http://www.w3.org/2000/svg" viewBox="0 0 100 100">
  <defs>
    <linearGradient id="orb" x1="0" y1="0" x2="100" y2="100" gradientUnits="userSpaceOnUse">
      <stop offset="0%" stop-color="#2196F3"/>
      <stop offset="55%" stop-color="#8B3CF7"/>
      <stop offset="100%" stop-color="#FF6B2B"/>
    </linearGradient>
    <linearGradient id="w1" x1="0" y1="0" x2="100" y2="0" gradientUnits="userSpaceOnUse">
      <stop offset="0%" stop-color="#64B5F6" stop-opacity="0.9"/>
      <stop offset="100%" stop-color="#2196F3" stop-opacity="0.6"/>
    </linearGradient>
    <linearGradient id="w2" x1="0" y1="0" x2="100" y2="0" gradientUnits="userSpaceOnUse">
      <stop offset="0%" stop-color="#2196F3"/>
      <stop offset="100%" stop-color="#8B3CF7"/>
    </linearGradient>
    <linearGradient id="w3" x1="0" y1="0" x2="100" y2="0" gradientUnits="userSpaceOnUse">
      <stop offset="0%" stop-color="#FF6B2B"/>
      <stop offset="100%" stop-color="#FFB347" stop-opacity="0.8"/>
    </linearGradient>
    <clipPath id="clip"><circle cx="50" cy="50" r="46"/></clipPath>
  </defs>
  <circle cx="50" cy="50" r="50" fill="#111827"/>
  <circle cx="50" cy="50" r="46" stroke="url(#orb)" stroke-width="4" fill="none" opacity="0.85"/>
  <g clip-path="url(#clip)">
    <path d="M4 35C20 25,30 45,50 35C70 25,80 45,96 35L96 22C80 32,70 12,50 22C30 32,20 12,4 22Z" fill="url(#w1)"/>
    <path d="M4 50C20 40,30 60,50 50C70 40,80 60,96 50L96 37C80 47,70 27,50 37C30 47,20 27,4 37Z" fill="url(#w2)"/>
    <path d="M4 65C20 55,30 75,50 65C70 55,80 75,96 65L96 52C80 62,70 42,50 52C30 62,20 42,4 52Z" fill="url(#w3)"/>
  </g>
</svg>
